Coordinates
version=1
nRows=28
nColumns=23
inDegrees=yes

Units are S.I. units (second, meters, Newtons, ...)
If the header above contains a line with 'inDegrees', this indicates whether rotational values are in degrees (yes) or radians (no).

endheader
time	pelvis_tilt	pelvis_list	pelvis_rotation	pelvis_tx	pelvis_ty	pelvis_tz	hip_flexion_r	hip_adduction_r	hip_rotation_r	knee_angle_r	knee_angle_r_beta	ankle_angle_r	subtalar_angle_r	mtp_angle_r	hip_flexion_l	hip_adduction_l	hip_rotation_l	knee_angle_l	knee_angle_l_beta	ankle_angle_l	subtalar_angle_l	mtp_angle_l
     15.00000000	     -6.31782433	     -7.50704777	     -6.63665195	      2.18308327	      0.99046649	      1.03110337	     29.94753915	      8.96568626	     -9.04073869	     49.84293093	      0.86992325	     22.28335905	     -4.32902397	      0.00000000	     11.56416864	    -15.42602762	     -5.18227081	     85.76445955	      1.49687220	     -1.36816449	     -7.07698390	      0.00000000
     15.00666667	     -6.57882684	     -7.67108371	     -6.18187847	      2.18172026	      0.99010281	      1.03028437	     29.13768065	      8.78342617	     -9.50832344	     49.73366706	      0.86801624	     23.21100857	     -3.73264353	      0.00000000	     13.79959989	    -15.41570515	     -3.94777503	     87.00360869	      1.51849943	     -0.56765034	     -6.19994445	      0.00000000
     15.01333333	     -6.69500113	     -7.67785507	     -5.71665616	      2.18041604	      0.99059799	      1.02945275	     28.07957791	      8.41568967	     -9.98207660	     49.45264343	      0.86311145	     24.04240366	     -2.95511453	      0.00000000	     15.82739869	    -15.16749064	     -2.87407117	     87.91379538	      1.53438519	      0.20131115	     -5.41885777	      0.00000000
     15.02000000	     -6.62267875	     -7.56909161	     -5.22301196	      2.17915013	      0.99197091	      1.02856168	     26.73462066	      7.94828624	    -10.38781122	     48.98389857	      0.85493031	     24.66729312	     -2.30181364	      0.00000000	     17.58764544	    -14.68552510	     -1.90787667	     88.50576170	      1.54471695	      0.92174593	     -4.86034779	      0.00000000
     15.02666667	     -6.50056643	     -7.27313188	     -4.79061612	      2.17828623	      0.99410064	      1.02774923	     25.21294231	      7.24695531	    -10.88740147	     48.35179895	      0.84389809	     25.34427764	     -1.04258396	      0.00000000	     19.12259449	    -14.08021714	     -1.32315006	     88.70008222	      1.54810848	      1.64283808	     -4.38247951	      0.00000000
     15.03333333	     -6.29555168	     -6.92578839	     -4.38794884	      2.17741813	      0.99689251	      1.02699895	     23.54051245	      6.59739035	    -11.20341127	     47.52992532	      0.82955369	     25.64706915	     -0.22601860	      0.00000000	     20.46777986	    -13.38819951	     -0.88652613	     88.59575098	      1.54628756	      2.28483669	     -4.14420033	      0.00000000
     15.04000000	     -6.38235825	     -6.51286278	     -4.25813456	      2.17656177	      0.99983236	      1.02677175	     22.13663078	      6.19978310	    -10.94648961	     46.53154056	      0.81212859	     25.77438487	      0.01962285	      0.00000000	     21.97007769	    -12.79416270	     -0.85460302	     88.23088653	      1.53991947	      2.73614486	     -4.11621366	      0.00000000
     15.04666667	     -6.04974659	     -6.10212738	     -3.72821401	      2.17589674	      1.00356616	      1.02571256	     20.20724049	      5.46320230	    -11.39797125	     45.42829833	      0.79287338	     25.63767621	      0.70937053	      0.00000000	     23.03295716	    -11.92919735	     -0.54573121	     87.64420489	      1.52967995	      3.74345799	     -4.08668607	      0.00000000
     15.05333333	     -6.19893550	     -5.68169728	     -3.59608765	      2.17525124	      1.00711423	      1.02540898	     18.80264503	      5.06363936	    -11.19639023	     44.25732223	      0.77243599	     25.50679589	      1.20104933	      0.00000000	     24.42045091	    -11.32859756	     -0.72367470	     86.80008691	      1.51494731	      4.25696840	     -4.10460186	      0.00000000
     15.06000000	     -5.71991991	     -5.24314713	     -3.23988126	      2.17517183	      1.01186875	      1.02464873	     16.57756313	      4.34979800	    -11.65824480	     42.88566585	      0.74849607	     24.97105607	      2.38139757	      0.00000000	     24.96626349	    -10.58234841	     -0.89155984	     85.58609894	      1.49375922	      5.01417414	     -4.29785165	      0.00000000
     15.06666667	     -5.80835439	     -4.78145950	     -3.08441540	      2.17493715	      1.01608345	      1.02421086	     15.04585754	      3.84244286	    -11.65923585	     41.54753938	      0.72514136	     24.17106514	      2.92510169	      0.00000000	     26.05160826	     -9.92218702	     -1.24219746	     84.24084307	      1.47028008	      5.75525589	     -4.48178807	      0.00000000
     15.07333333	     -5.87040486	     -4.34438220	     -2.93099567	      2.17493138	      1.02062305	      1.02375900	     13.45538747	      3.38906609	    -11.61512695	     40.11535172	      0.70014497	     23.14854920	      3.39871460	      0.00000000	     26.97888692	     -9.30298036	     -1.68172223	     82.63981446	      1.44233686	      6.42311862	     -4.65884458	      0.00000000
     15.08000000	     -5.71879341	     -3.93895592	     -2.75706141	      2.17520884	      1.02568447	      1.02334056	     11.58667527	      2.98267170	    -11.57391838	     38.54872777	      0.67280222	     21.90137853	      3.79647774	      0.00000000	     27.53029660	     -8.71395719	     -2.16027105	     80.77600787	      1.40980729	      7.00078213	     -4.83179619	      0.00000000
     15.08666667	     -5.96974713	     -3.47674491	     -2.67083479	      2.17549828	      1.03032777	      1.02296770	     10.25078897	      2.52567222	    -11.49520686	     37.11351983	      0.64775312	     20.32332197	      4.17915183	      0.00000000	     28.43052602	     -8.09660803	     -2.73196033	     78.75346713	      1.37450730	      7.68207331	     -4.89445829	      0.00000000
     15.09333333	     -5.77417244	     -3.08555937	     -2.48722338	      2.17613795	      1.03579471	      1.02256158	      8.33790797	      2.17193459	    -11.39640259	     35.44242468	      0.61858701	     18.53155057	      4.30829514	      0.00000000	     28.69505730	     -7.51424179	     -3.26984016	     76.44587925	      1.33423229	      8.21083520	     -4.93651290	      0.00000000
     15.10000000	     -6.03705627	     -2.59972648	     -2.39644398	      2.17671702	      1.04062834	      1.02218440	      7.07907167	      1.67032431	    -11.36892083	     34.03136009	      0.59395928	     16.44300821	      4.60276322	      0.00000000	     29.37462047	     -6.85825942	     -3.88436013	     73.99641052	      1.29148100	      8.80190395	     -4.82274855	      0.00000000
     15.10666667	     -5.91088342	     -2.21180408	     -2.21230480	      2.17759573	      1.04608872	      1.02178262	      5.31214521	      1.35704406	    -11.16990551	     32.38277892	      0.56518611	     14.29394721	      4.51143177	      0.00000000	     29.50602820	     -6.27154485	     -4.43432665	     71.30732229	      1.24454755	      9.27527650	     -4.63399758	      0.00000000
     15.11333333	     -6.05749910	     -1.73776139	     -2.05481915	      2.17843885	      1.05112390	      1.02134335	      3.98309767	      0.87792247	    -11.14202109	     30.97851991	      0.54067717	     11.95728349	      4.61589952	      0.00000000	     29.84714162	     -5.59091033	     -5.01334959	     68.46263185	      1.19489834	      9.75137614	     -4.32867704	      0.00000000
     15.12000000	     -6.21566421	     -1.27110462	     -1.88963753	      2.17937700	      1.05608112	      1.02087134	      2.71469415	      0.41695395	    -11.06082971	     29.61982305	      0.51696344	      9.53174396	      4.65557455	      0.00000000	     30.10342502	     -4.89768686	     -5.56816284	     65.44075309	      1.14215661	     10.18128387	     -3.90183132	      0.00000000
     15.12666667	     -6.54017524	     -0.76100712	     -1.70060298	      2.18026099	      1.06066054	      1.02030615	      1.75385668	     -0.14176417	    -11.09462945	     28.48302372	      0.49712254	      7.09464036	      4.81355310	      0.00000000	     30.46957615	     -4.13824843	     -6.09867237	     62.28099623	      1.08700845	     10.56341520	     -3.34271802	      0.00000000
     15.13333333	     -6.69296356	     -0.30973835	     -1.47708853	      2.18122805	      1.06539766	      1.01970952	      0.59595627	     -0.57324579	    -10.92087004	     27.26542343	      0.47587141	      4.56843795	      4.66082315	      0.00000000	     30.55194578	     -3.42640474	     -6.60077382	     58.95181851	      1.02890333	     10.91127339	     -2.66927223	      0.00000000
     15.14000000	     -7.00406676	      0.15717584	     -1.23645258	      2.18214760	      1.06972556	      1.01902898	     -0.26012313	     -1.06629956	    -10.83358667	     26.28501586	      0.45876007	      2.08316457	      4.57601250	      0.00000000	     30.72980584	     -2.66415155	     -7.05049606	     55.49071377	      0.96849566	     11.22286615	     -1.85657123	      0.00000000
     15.14666667	     -7.34663753	      0.63632804	     -0.94326577	      2.18303155	      1.07379127	      1.01821305	     -0.99071572	     -1.60984589	    -10.83002840	     25.48113559	      0.44472971	     -0.29225668	      4.60487452	      0.00000000	     30.86747713	     -1.84761564	     -7.44976151	     51.90622990	      0.90593461	     11.48938358	     -0.93255054	      0.00000000
     15.15333333	     -7.68805906	      1.06601648	     -0.63701196	      2.18391015	      1.07762885	      1.01728619	     -1.66610369	     -2.08758563	    -10.70556015	     24.76200555	      0.43217853	     -2.66474770	      4.47318912	      0.00000000	     30.92353166	     -1.06359565	     -7.81461130	     48.22177486	      0.84162874	     11.72942001	      0.13662681	      0.00000000
     15.16000000	     -8.09018547	      1.46164835	     -0.28442861	      2.18470820	      1.08108850	      1.01626984	     -2.17800536	     -2.53687948	    -10.55672647	     24.23353321	      0.42295494	     -4.90663004	      4.29976153	      0.00000000	     30.98731034	     -0.26834223	     -8.09908165	     44.47064863	      0.77615924	     11.93330553	      1.33991630	      0.00000000
     15.16666667	     -8.63570538	      1.79168081	      0.10282044	      2.18536632	      1.08397482	      1.01510027	     -2.38045557	     -2.99115136	    -10.56792892	     24.02825128	      0.41937210	     -7.03821966	      4.22471430	      0.00000000	     31.17631026	      0.50517365	     -8.27691677	     40.73087812	      0.71088793	     12.10633507	      2.61393541	      0.00000000
     15.17333333	     -8.84079962	      2.09713593	      0.48020579	      2.18621712	      1.08705768	      1.01388933	     -2.99482145	     -3.32576636	    -10.22480609	     23.70984121	      0.41381479	     -9.10022917	      3.75922940	      0.00000000	     30.87470496	      1.27060665	     -8.44111501	     36.88963437	      0.64384558	     12.22765022	      3.99168332	      0.00000000
     15.18000000	     -9.23826645	      2.37110414	      0.87030247	      2.18694042	      1.08941074	      1.01266017	     -3.21822531	     -3.72703389	    -10.14057200	     23.79076981	      0.41522726	    -10.93886880	      3.46996589	      0.00000000	     30.76844824	      2.03409768	     -8.49552699	     33.13631632	      0.57833782	     12.30994751	      5.36996952	      0.00000000
